<svg width="45" height="45" viewBox="0 0 45 45" fill="none" xmlns="http://www.w3.org/2000/svg">
<path d="M20.25 24.75V45H15.1875C11.1614 44.994 7.30181 43.392 4.45489 40.5451C1.60797 37.6982 0.00595145 33.8386 0 29.8125V24.75H20.25ZM45 24.75V29.8125C44.994 33.8386 43.392 37.6982 40.5451 40.5451C37.6982 43.392 33.8386 44.994 29.8125 45H24.75V24.75H45ZM45 15.1875V20.25H24.75V0H29.8125C33.8386 0.00595145 37.6982 1.60797 40.5451 4.45489C43.392 7.30181 44.994 11.1614 45 15.1875ZM20.25 0V20.25H0V15.1875C0.00595145 11.1614 1.60797 7.30181 4.45489 4.45489C7.30181 1.60797 11.1614 0.00595145 15.1875 0H20.25Z" fill="#FFD190"/>
</svg>
